<svg xmlns="http://www.w3.org/2000/svg" width="25" height="25" viewBox="0 0 25 25">
    <path fill="#475993" d="M21.62 0H3.367C1.507 0 0 1.507 0 3.367V21.62c0 1.86 1.508 3.367 3.367 3.367h9.002l.016-8.93h-2.32c-.302 0-.546-.243-.547-.544l-.012-2.878c0-.304.245-.55.548-.55h2.315V9.304c0-3.227 1.971-4.985 4.85-4.985h2.363c.302 0 .547.245.547.548v2.427c0 .302-.245.547-.547.547h-1.45c-1.565 0-1.868.745-1.868 1.837v2.407h3.44c.328 0 .582.286.543.612l-.34 2.878c-.033.276-.267.483-.544.483h-3.084l-.015 8.929h5.356c1.86 0 3.367-1.507 3.367-3.367V3.367C24.987 1.507 23.479 0 21.62 0z"/>
</svg>
