<svg xmlns="http://www.w3.org/2000/svg" width="25" height="25" viewBox="0 0 25 25">
    <g fill="none">
        <path fill="#FBBB00" d="M5.54 15.108l-.87 3.248-3.18.068C.54 16.66 0 14.644 0 12.5c0-2.073.504-4.027 1.398-5.749l2.832.52 1.24 2.814c-.26.757-.4 1.57-.4 2.415 0 .918.166 1.797.47 2.608z"/>
        <path fill="#518EF8" d="M24.782 10.165c.143.756.218 1.537.218 2.335 0 .895-.094 1.768-.273 2.61-.609 2.865-2.199 5.367-4.401 7.138h-.001l-3.567-.183-.504-3.15c1.461-.858 2.603-2.2 3.205-3.805h-6.684v-4.945h12.007z"/>
        <path fill="#28B446" d="M20.325 22.247C18.184 23.97 15.463 25 12.5 25c-4.76 0-8.899-2.66-11.01-6.576l4.05-3.316c1.056 2.817 3.774 4.823 6.96 4.823 1.37 0 2.652-.37 3.753-1.017l4.072 3.333z"/>
        <path fill="#F14336" d="M20.479 2.878l-4.05 3.315c-1.14-.712-2.486-1.124-3.929-1.124-3.258 0-6.027 2.098-7.03 5.016L1.398 6.751C3.478 2.741 7.668 0 12.5 0c3.033 0 5.814 1.08 7.979 2.878z"/>
    </g>
</svg>
